<svg style="position: absolute; width: 0; height: 0; overflow: hidden;" version="1.1" xmlns="http://www.w3.org/2000/svg" xmlns:xlink="http://www.w3.org/1999/xlink">
<defs>
<symbol id="video" viewBox="0 0 46 32">
<title>video</title>
<path class="path1" d="M43.556 0h-40.889c-1.473 0-2.667 1.194-2.667 2.667v26.667c0 1.473 1.194 2.667 2.667 2.667h40.889c1.473 0 2.667-1.194 2.667-2.667v-26.667c0-1.473-1.194-2.667-2.667-2.667zM28.178 16.622l-9.867 5.867c-0.622 0.356-0.444 0.089-0.444-0.622v-11.733c0-0.711-0.089-0.978 0.444-0.622l9.6 5.867c0.533 0.356 0.8 0.889 0.267 1.244z"></path>
</symbol>
<symbol id="title_icon" viewBox="0 0 32 32">
<title>title_icon</title>
<path class="path1" d="M29.433 27.859h-26.87c-1.065 0-1.928-0.863-1.928-1.928s0.863-1.928 1.928-1.928h26.87c1.064 0 1.927 0.864 1.927 1.928s-0.863 1.928-1.927 1.928z"></path>
<path class="path2" d="M12.452 18.816h-9.889c-1.065 0-1.928-0.864-1.928-1.928v-10.8c0-1.064 0.863-1.928 1.928-1.928h9.889c1.064 0 1.928 0.864 1.928 1.928v10.8c0 1.064-0.864 1.928-1.928 1.928zM4.491 14.959h6.033v-6.943h-6.033v6.943z"></path>
<path class="path3" d="M29.433 8.602h-9.762c-1.065 0-1.928-0.864-1.928-1.928s0.864-1.928 1.928-1.928h9.762c1.064 0 1.927 0.863 1.927 1.928s-0.863 1.928-1.927 1.928z"></path>
<path class="path4" d="M29.433 18.23h-9.762c-1.065 0-1.928-0.863-1.928-1.928s0.864-1.928 1.928-1.928h9.762c1.064 0 1.927 0.863 1.927 1.928s-0.863 1.928-1.927 1.928z"></path>
</symbol>
<symbol id="text" viewBox="0 0 32 32">
<title>text</title>
<path class="path1" d="M7.459 7.459h7.972v17.082h-2.088v1.139h5.315v-1.139h-2.088v-17.082h7.972v3.416h1.139v-4.555h-19.36v4.555h1.139z"></path>
</symbol>
<symbol id="notifications" viewBox="0 0 32 32">
<title>notifications</title>
<path class="path1" d="M16 32c1.76 0 3.2-1.44 3.2-3.2h-6.4c0 1.76 1.44 3.2 3.2 3.2zM26.4 22.4v-8.8c0-4.96-3.36-8.96-8-10.080v-1.12c0-1.28-1.12-2.4-2.4-2.4s-2.4 1.12-2.4 2.4v1.12c-4.64 1.12-8 5.12-8 10.080v8.8l-3.2 3.2v1.6h27.2v-1.6l-3.2-3.2zM23.2 24h-14.4v-10.4c0-4 3.2-7.2 7.2-7.2s7.2 3.2 7.2 7.2v10.4z"></path>
</symbol>
<symbol id="lists" viewBox="0 0 32 32">
<title>lists</title>
<path class="path1" d="M11.392 9.312h16.128c0.704 0 1.28-0.576 1.28-1.28s-0.576-1.28-1.28-1.28h-16.128c-0.704 0-1.28 0.576-1.28 1.28s0.576 1.28 1.28 1.28z"></path>
<path class="path2" d="M6.4 8.032c0 0.707-0.573 1.28-1.28 1.28s-1.28-0.573-1.28-1.28c0-0.707 0.573-1.28 1.28-1.28s1.28 0.573 1.28 1.28z"></path>
<path class="path3" d="M11.392 17.312h16.128c0.704 0 1.28-0.576 1.28-1.28s-0.576-1.28-1.28-1.28h-16.128c-0.704 0-1.28 0.576-1.28 1.28s0.576 1.28 1.28 1.28z"></path>
<path class="path4" d="M6.4 16.032c0 0.707-0.573 1.28-1.28 1.28s-1.28-0.573-1.28-1.28c0-0.707 0.573-1.28 1.28-1.28s1.28 0.573 1.28 1.28z"></path>
<path class="path5" d="M11.392 25.312h16.128c0.704 0 1.28-0.576 1.28-1.28s-0.576-1.28-1.28-1.28h-16.128c-0.704 0-1.28 0.576-1.28 1.28s0.576 1.28 1.28 1.28z"></path>
<path class="path6" d="M6.4 24.032c0 0.707-0.573 1.28-1.28 1.28s-1.28-0.573-1.28-1.28c0-0.707 0.573-1.28 1.28-1.28s1.28 0.573 1.28 1.28z"></path>
</symbol>
<symbol id="icon" viewBox="0 0 32 32">
<title>icon</title>
<path class="path1" d="M16.040 11.84c-0.331 0-0.6 0.269-0.6 0.6v0.187c0 0.332 0.269 0.6 0.6 0.6s0.6-0.268 0.6-0.6v-0.187c0-0.331-0.269-0.6-0.6-0.6zM16.040 14.24c-0.331 0-0.6 0.269-0.6 0.6v4.8c0 0.331 0.269 0.6 0.6 0.6s0.6-0.269 0.6-0.6v-4.8c0-0.331-0.269-0.6-0.6-0.6zM16.040 23.84c-4.301 0-7.8-3.499-7.8-7.8s3.499-7.8 7.8-7.8c4.301 0 7.8 3.499 7.8 7.8s-3.499 7.8-7.8 7.8zM16.040 7.040c-4.963 0-9 4.037-9 9s4.037 9 9 9c4.963 0 9-4.037 9-9s-4.037-9-9-9z"></path>
</symbol>
<symbol id="icon_group" viewBox="0 0 32 32">
<title>icon_group</title>
<path class="path1" d="M15.997 0.582c-2.11 0-3.828 1.716-3.828 3.828s1.718 3.828 3.828 3.828c2.112 0 3.829-1.717 3.829-3.828 0.001-2.112-1.717-3.828-3.829-3.828zM15.997 6.452c-1.124 0-2.042-0.915-2.042-2.042 0-1.125 0.918-2.042 2.042-2.042 1.126 0 2.042 0.917 2.042 2.042 0.001 1.126-0.916 2.042-2.042 2.042z"></path>
<path class="path2" d="M15.997 22.488c-2.11 0-3.828 1.718-3.828 3.828 0 2.111 1.718 3.827 3.828 3.827 2.112 0 3.829-1.716 3.829-3.827s-1.717-3.828-3.829-3.828zM15.997 28.357c-1.124 0-2.042-0.915-2.042-2.040 0-1.126 0.918-2.043 2.042-2.043 1.126 0 2.042 0.917 2.042 2.043s-0.916 2.040-2.042 2.040z"></path>
<path class="path3" d="M4.573 13.338c0.572 0.322 1.219 0.488 1.871 0.488v0c1.382 0 2.662-0.747 3.339-1.953 1.035-1.841 0.378-4.179-1.463-5.213-1.78-1.003-4.214-0.312-5.212 1.462-1.034 1.839-0.377 4.179 1.464 5.215zM4.667 8.999c0.363-0.643 1.045-1.043 1.785-1.043 0.346 0 0.691 0.090 0.995 0.262 0.982 0.552 1.332 1.798 0.781 2.78-0.361 0.643-1.043 1.042-1.782 1.042v0c-0.346 0-0.691-0.090-0.995-0.26-0.985-0.554-1.335-1.802-0.785-2.782z"></path>
<path class="path4" d="M27.424 17.387c-1.788-1.004-4.218-0.307-5.212 1.464-0.499 0.893-0.626 1.923-0.348 2.908 0.276 0.987 0.92 1.804 1.809 2.306 0.573 0.321 1.218 0.49 1.873 0.49 1.384 0 2.664-0.749 3.343-1.954 1.032-1.841 0.378-4.179-1.465-5.215zM27.329 21.725c-0.531 0.947-1.827 1.319-2.78 0.781-0.475-0.268-0.817-0.705-0.966-1.229s-0.083-1.078 0.186-1.553c0.36-0.643 1.043-1.044 1.784-1.044 0.345 0 0.691 0.092 0.996 0.262 0.982 0.552 1.332 1.8 0.78 2.783z"></path>
<path class="path5" d="M23.679 6.664c-0.891 0.5-1.534 1.318-1.813 2.301-0.278 0.985-0.152 2.016 0.346 2.908 0.677 1.208 1.959 1.956 3.343 1.956 0.652 0 1.301-0.169 1.871-0.49 0.892-0.499 1.533-1.317 1.814-2.301 0.276-0.985 0.152-2.019-0.346-2.909-0.996-1.773-3.428-2.465-5.214-1.465zM27.517 10.556c-0.147 0.523-0.489 0.96-0.966 1.227-0.305 0.172-0.652 0.262-0.997 0.262-0.739 0-1.422-0.399-1.784-1.043-0.266-0.476-0.333-1.028-0.186-1.554 0.147-0.523 0.491-0.959 0.966-1.226 0.303-0.171 0.649-0.262 0.998-0.262 0.739 0 1.423 0.402 1.784 1.041 0.268 0.477 0.335 1.028 0.186 1.554z"></path>
<path class="path6" d="M4.573 17.385c-0.891 0.5-1.534 1.318-1.81 2.303-0.278 0.985-0.155 2.018 0.346 2.91 0.677 1.205 1.957 1.954 3.345 1.954 0.652 0 1.297-0.168 1.869-0.486 1.84-1.034 2.495-3.374 1.463-5.213-0.996-1.774-3.427-2.467-5.213-1.467zM7.447 22.506c-0.305 0.172-0.65 0.259-0.995 0.259-0.739 0-1.425-0.4-1.787-1.041-0.266-0.476-0.333-1.027-0.186-1.554 0.147-0.525 0.489-0.963 0.967-1.228 0.303-0.171 0.647-0.262 0.993-0.262 0.741 0 1.425 0.401 1.788 1.044 0.552 0.983 0.202 2.23-0.78 2.781z"></path>
</symbol>
<symbol id="gmaps" viewBox="0 0 44 32">
<title>gmaps</title>
<path class="path1" d="M38.794 24.476c0.504-1.519 0.797 1.308 0.797 1.308-11.665 5.591-34.611 0.117-34.98 0s0.452-1.308 0.452-1.308 10.869 2.845 20.636 2.834c4.772-0.005 12.929-2.335 13.095-2.834z"></path>
<path class="path2" fill="none" stroke="#000" stroke-width="0.8808" stroke-miterlimit="1.41421" stroke-linecap="round" stroke-linejoin="round" d="M14.871 15.479h-7.123c-0.905 5.583-3.404 10.859-7.135 15.899 14.263-0.707 28.523-0.719 42.782 0-4.024-5.254-6.507-10.55-7.079-15.899h-7.145"></path>
<path class="path3" d="M19.007 0.62c-0.010 0.004-0.020 0.008-0.030 0.013-2.12 0.874-3.754 2.611-4.481 4.762s-0.477 4.509 0.686 6.465c3.192 5.365 6.865 11.542 6.865 11.542l1.8-3.027c0 0 2.574-4.328 5.068-8.52 1.163-1.955 1.413-4.311 0.686-6.461s-2.36-3.886-4.478-4.759c-0.012-0.005-0.024-0.009-0.035-0.015-1.946-0.802-4.135-0.802-6.081 0zM22.047 3.794c2.214 0 3.948 1.725 3.948 3.941s-1.734 3.941-3.948 3.941c-2.214 0-3.962-1.724-3.962-3.941s1.748-3.941 3.962-3.941z"></path>
</symbol>
<symbol id="empty_space" viewBox="0 0 32 32">
<title>empty_space</title>
<path class="path1" d="M27.2 2.4c0-0.448-0.352-0.8-0.8-0.8s-0.8 0.352-0.8 0.8v10.4h-19.2v-10.4c0-0.448-0.352-0.8-0.8-0.8s-0.8 0.352-0.8 0.8v11.2c0 0.448 0.352 0.8 0.8 0.8h20.8c0.448 0 0.8-0.352 0.8-0.8v-11.2z"></path>
<path class="path2" d="M26.4 30.4c0.448 0 0.8-0.352 0.8-0.8v-9.6c0-0.448-0.352-0.8-0.8-0.8h-20.8c-0.448 0-0.8 0.352-0.8 0.8v9.6c0 0.448 0.352 0.8 0.8 0.8s0.8-0.352 0.8-0.8v-8.8h19.2v8.8c0 0.448 0.352 0.8 0.8 0.8z"></path>
<path class="path3" d="M16.8 17.6c0.448 0 0.8-0.352 0.8-0.8s-0.352-0.8-0.8-0.8h-1.6c-0.448 0-0.8 0.352-0.8 0.8s0.352 0.8 0.8 0.8h1.6z"></path>
<path class="path4" d="M12 17.6c0.448 0 0.8-0.352 0.8-0.8s-0.352-0.8-0.8-0.8h-1.6c-0.448 0-0.8 0.352-0.8 0.8s0.352 0.8 0.8 0.8h1.6z"></path>
<path class="path5" d="M5.6 17.6h1.6c0.448 0 0.8-0.352 0.8-0.8s-0.352-0.8-0.8-0.8h-1.6c-0.448 0-0.8 0.352-0.8 0.8s0.352 0.8 0.8 0.8z"></path>
<path class="path6" d="M26.4 16h-1.6c-0.448 0-0.8 0.352-0.8 0.8s0.352 0.8 0.8 0.8h1.6c0.448 0 0.8-0.352 0.8-0.8s-0.352-0.8-0.8-0.8z"></path>
<path class="path7" d="M21.6 17.6c0.448 0 0.8-0.352 0.8-0.8s-0.352-0.8-0.8-0.8h-1.6c-0.448 0-0.8 0.352-0.8 0.8s0.352 0.8 0.8 0.8h1.6z"></path>
</symbol>
<symbol id="dropcap" viewBox="0 0 32 32">
<title>dropcap</title>
<path class="path1" d="M17.024 6.784h-5.664v18.4h5.664c4.192 0 5.664-4.96 5.664-9.216 0-4.224-1.472-9.184-5.664-9.184z"></path>
<path class="path2" d="M16 0.512c-8.608 0-15.616 6.976-15.616 15.616s7.008 15.584 15.616 15.584 15.616-6.976 15.616-15.616-7.008-15.584-15.616-15.584zM17.024 26.624h-6.4c-0.384 0-0.704-0.32-0.704-0.704v-19.84c0-0.384 0.32-0.704 0.704-0.704h6.368c4.32 0 7.072 4.16 7.072 10.624 0.032 6.464-2.752 10.624-7.040 10.624z"></path>
</symbol>
<symbol id="divider" viewBox="0 0 32 32">
<title>divider</title>
<path class="path1" d="M17.472 14.080l-1.472 1.472-1.472-1.472-0.448 0.448 1.472 1.472-1.472 1.472 0.448 0.448 1.472-1.472 1.472 1.472 0.448-0.448-1.472-1.472 1.472-1.472z"></path>
<path class="path2" d="M19.136 15.68h8v0.64h-8v-0.64z"></path>
<path class="path3" d="M4.864 15.68h8v0.64h-8v-0.64z"></path>
</symbol>
<symbol id="call_to_action" viewBox="0 0 32 32">
<title>call_to_action</title>
<path class="path1" d="M24.444 16c0-2.325-1.675-4.262-3.881-4.681v-8.363c0-0.7-0.775-1.119-1.363-0.737l-12.694 8.206h-5.5c-0.488 0-0.881 0.394-0.881 0.881v9.388c0 0.488 0.394 0.881 0.881 0.881h5.5l12.694 8.212c0.587 0.381 1.363-0.044 1.363-0.738v-8.369c2.2-0.419 3.881-2.356 3.881-4.681zM1.887 12.188h3.994v7.625h-3.994v-7.625zM18.794 27.425l-11.144-7.213v-1.569h1.762c0.488 0 0.881-0.394 0.881-0.881s-0.394-0.881-0.881-0.881h-1.763v-1.762h3.531c0.488 0 0.881-0.394 0.881-0.881s-0.394-0.881-0.881-0.881h-3.531v-1.569l11.144-7.213v22.85zM20.556 18.869v-5.738c1.225 0.375 2.119 1.519 2.119 2.869s-0.894 2.487-2.119 2.869z"></path>
<path class="path2" d="M28.306 7.369c-0.344-0.344-0.906-0.344-1.25 0s-0.337 0.9 0.006 1.244c1.887 1.894 3.050 4.506 3.050 7.381s-1.169 5.487-3.050 7.381c-0.344 0.344-0.35 0.9-0.006 1.244s0.906 0.35 1.25 0c2.2-2.206 3.569-5.256 3.569-8.619s-1.369-6.412-3.569-8.631z"></path>
<path class="path3" d="M25.637 9.956c-0.325-0.319-0.881-0.275-1.206 0.044-0.331 0.331-0.35 0.9-0.012 1.231 1.219 1.225 1.981 2.906 1.981 4.769s-0.756 3.544-1.981 4.769c-0.331 0.331-0.319 0.9 0.012 1.231 0.325 0.325 0.881 0.369 1.206 0.044 1.556-1.544 2.525-3.688 2.525-6.044-0.006-2.363-0.969-4.5-2.525-6.044z"></path>
</symbol>
<symbol id="button" viewBox="0 0 19 32">
<title>button</title>
<path class="path1" d="M16.205 17.514l-6.326-0.639c0-3.035-0.24-6.070-0.24-9.106 0-0.914-0.763-1.677-1.677-1.677s-1.246 0.763-1.246 1.677c0 3.982 0 8.799 0 12.781-0.515-0.696-2.491-2.763-2.516-2.796-0.651-0.88-2.869-1.404-3.893-0.804-0.869 0.51 0.723 1.74 1.377 2.624 2.373 3.208 4.253 6.4 6.626 9.608 0.275 0.548 0.646 1.040 1.092 1.454 0.224 0.251 0.487 0.454 0.772 0.592 0.783 0.489 1.708 0.772 2.699 0.772 2.68 0 4.876-2.067 5.086-4.693 0.011-0.077 0.018-0.156 0.018-0.236l0.865-7.545c0-0.953-1.683-2.013-2.636-2.013z"></path>
<path class="path2" d="M5.717 15.261c0-0.604 0-1.207 0-1.808-2.325-0.842-3.992-3.072-3.992-5.684 0-3.332 2.711-6.044 6.044-6.044s6.044 2.711 6.044 6.044c0 2.215-1.198 4.153-2.98 5.206 0.025 0.633 0.050 1.266 0.074 1.899 2.725-1.208 4.631-3.937 4.631-7.104 0-4.284-3.484-7.769-7.769-7.769s-7.769 3.485-7.769 7.769c0 3.574 2.426 6.59 5.717 7.492z"></path>
</symbol>
<symbol id="button_group" viewBox="0 0 32 32">
<title>button_group</title>
<path class="path1" d="M16 2.133h3.2v3.2h-3.2v-3.2z"></path>
<path class="path2" d="M20.267 2.133h3.2v3.2h-3.2v-3.2z"></path>
<path class="path3" d="M16 6.4h3.2v3.2h-3.2v-3.2z"></path>
<path class="path4" d="M20.267 6.4h3.2v3.2h-3.2v-3.2z"></path>
<path class="path5" d="M21.867 14.933c-0.883 0-1.6 0.717-1.6 1.6v-1.067c0-0.883-0.717-1.6-1.6-1.6s-1.6 0.717-1.6 1.6v-1.067c0-0.883-0.717-1.6-1.6-1.6s-1.6 0.717-1.6 1.6v-8.533c0-0.883-0.717-1.6-1.6-1.6s-1.6 0.717-1.6 1.6v13.517l-2.758-2.758c-0.832-0.833-2.185-0.833-3.017 0-0.833 0.833-0.833 2.183 0 3.017l5.775 5.775v0.183c0 2.356 1.91 4.267 4.267 4.267h4.267c2.356 0 4.267-1.91 4.267-4.267v-9.067c0-0.883-0.717-1.6-1.6-1.6z"></path>
</symbol>
<symbol id="bubble_testimonial" viewBox="0 0 32 32">
<title>bubble_testimonial</title>
<path class="path1" d="M27.077 1.231h-22.154c-2.715 0-4.923 2.208-4.923 4.923v12.308c0 2.715 2.208 4.923 4.923 4.923h2.859l2.153 5.38c0.187 0.468 0.639 0.774 1.142 0.774s0.955-0.306 1.143-0.774l2.151-5.38h12.705c2.715 0 4.923-2.208 4.923-4.923v-12.308c0-2.715-2.208-4.923-4.923-4.923zM29.538 18.462c0 1.358-1.104 2.462-2.462 2.462h-13.538c-0.503 0-0.955 0.306-1.143 0.774l-1.318 3.297-1.318-3.297c-0.188-0.468-0.64-0.774-1.143-0.774h-3.692c-1.358 0-2.462-1.104-2.462-2.462v-12.308c0-1.358 1.104-2.462 2.462-2.462h22.154c1.358 0 2.462 1.104 2.462 2.462v12.308z"></path>
</symbol>
<symbol id="animated_numbers" viewBox="0 0 32 32">
<title>animated_numbers</title>
<path class="path1" d="M16 0.512c-8.608 0-15.616 6.976-15.616 15.616s7.008 15.584 15.616 15.584 15.616-6.976 15.616-15.616-7.008-15.584-15.616-15.584zM18.4 6.208v19.84c0 0.384-0.32 0.704-0.704 0.704s-0.704-0.32-0.704-0.704v-18.144l-5.152 5.184c-0.288 0.256-0.736 0.256-1.024 0-0.256-0.288-0.256-0.736 0-1.024l6.368-6.368c0.224-0.192 0.512-0.256 0.8-0.128 0.256 0.096 0.416 0.352 0.416 0.64z"></path>
</symbol>
</defs>
</svg>
